<?xml version="1.0" encoding="UTF-8"?>
<!DOCTYPE svg PUBLIC "-//W3C//DTD SVG 1.1//EN" "http://www.w3.org/Graphics/SVG/1.1/DTD/svg11.dtd">
<!-- Creator: CorelDRAW X7 -->
<svg xmlns="http://www.w3.org/2000/svg" xml:space="preserve" width="10cm" height="10cm" version="1.1" style="shape-rendering:geometricPrecision; text-rendering:geometricPrecision; image-rendering:optimizeQuality; fill-rule:evenodd; clip-rule:evenodd"
viewBox="0 0 10268 10268"
 xmlns:xlink="http://www.w3.org/1999/xlink">
 <defs>
  <style type="text/css">
   <![CDATA[
    .fil0 {fill:#000B58}
   ]]>
  </style>
 </defs>
 <g id="Layer_x0020_1">
  <metadata id="CorelCorpID_0Corel-Layer"/>
  <g id="_393045736">
   <path class="fil0" d="M2505 6169c0,-2092 1696,-3789 3788,-3789 2092,0 3788,1697 3788,3789 0,144 -8,285 -23,425 137,-463 210,-953 210,-1460 0,-2835 -2298,-5134 -5134,-5134 -2835,0 -5134,2299 -5134,5134 0,2836 2299,5134 5134,5134 711,0 1388,-144 2004,-405 -272,62 -555,94 -845,94 -2092,0 -3788,-1696 -3788,-3788z"/>
   <path class="fil0" d="M6293 3277c-1597,0 -2892,1295 -2892,2892 0,1597 1295,2892 2892,2892 1597,0 2892,-1295 2892,-2892 0,-1597 -1295,-2892 -2892,-2892z"/>
  </g>
 </g>
</svg>
