<?xml version="1.0" encoding="UTF-8"?>
<!DOCTYPE svg PUBLIC "-//W3C//DTD SVG 1.1//EN" "http://www.w3.org/Graphics/SVG/1.1/DTD/svg11.dtd">
<!-- Creator: CorelDRAW X7 -->
<svg xmlns="http://www.w3.org/2000/svg" xml:space="preserve" width="3.93874cm" height="3.93874cm" version="1.1" style="shape-rendering:geometricPrecision; text-rendering:geometricPrecision; image-rendering:optimizeQuality; fill-rule:evenodd; clip-rule:evenodd"
viewBox="0 0 4374 4374"
 xmlns:xlink="http://www.w3.org/1999/xlink">
 <defs>
  <style type="text/css">
   <![CDATA[
    .fil0 {fill:white}
   ]]>
  </style>
 </defs>
 <g id="Layer_x0020_1">
  <metadata id="CorelCorpID_0Corel-Layer"/>
  <g id="_402331120">
   <path class="fil0" d="M1067 2627c0,-891 722,-1613 1613,-1613 892,0 1614,722 1614,1613 0,62 -3,122 -10,182 58,-197 90,-406 90,-622 0,-1208 -979,-2187 -2187,-2187 -1208,0 -2187,979 -2187,2187 0,1208 979,2187 2187,2187 303,0 591,-62 853,-173 -116,26 -236,40 -360,40 -891,0 -1613,-722 -1613,-1614z"/>
   <path class="fil0" d="M2680 1396c-680,0 -1231,551 -1231,1231 0,681 551,1232 1231,1232 681,0 1232,-551 1232,-1232 0,-680 -551,-1231 -1232,-1231z"/>
  </g>
 </g>
</svg>
